<svg width="22" height="18" viewBox="0 0 22 18" fill="none" xmlns="http://www.w3.org/2000/svg">
<path d="M21.1765 2.03676C20.3974 2.38295 19.5607 2.61661 18.681 2.72053C19.5779 2.18305 20.267 1.3318 20.592 0.317726C19.752 0.814836 18.8226 1.17757 17.8331 1.37152C17.0401 0.527558 15.9108 0 14.6604 0C12.2609 0 10.3168 1.94475 10.3168 4.34425C10.3168 4.68448 10.3546 5.01677 10.4287 5.3345C6.81788 5.15313 3.61679 3.4235 1.47346 0.794978C1.10013 1.43705 0.885663 2.18305 0.885663 2.97935C0.885663 4.48722 1.65284 5.81638 2.81784 6.59613C2.10626 6.57297 1.43639 6.37836 0.85058 6.05269C0.849918 6.07056 0.849918 6.08976 0.849918 6.10697C0.849918 8.21257 2.3472 9.96867 4.33498 10.3678C3.97092 10.4664 3.587 10.5201 3.1905 10.5201C2.90985 10.5201 2.63845 10.4929 2.37368 10.4426C2.92573 12.1676 4.53091 13.4239 6.43131 13.4597C4.94528 14.6247 3.07202 15.3204 1.03658 15.3204C0.68576 15.3204 0.33957 15.2999 0 15.2595C1.92225 16.4907 4.2059 17.2102 6.65968 17.2102C14.6505 17.2102 19.0212 10.5902 19.0212 4.84864C19.0212 4.66065 19.0159 4.47266 19.008 4.286C19.8572 3.67371 20.5933 2.90918 21.1765 2.03676Z" fill="black"/>
</svg>
