<svg width="24" height="15" viewBox="0 0 24 15" fill="none" xmlns="http://www.w3.org/2000/svg">
<path fill-rule="evenodd" clip-rule="evenodd" d="M23.056 14.3019H20.4349C19.4424 14.3019 19.137 13.513 17.3556 11.7061C15.8033 10.2047 15.1162 10.0011 14.7345 10.0011C14.2001 10.0011 14.0474 10.1538 14.0474 10.8918V13.2585C14.0474 13.8947 13.8438 14.2764 12.1642 14.2764C9.39036 14.2764 6.31114 12.5968 4.14805 9.46671C0.890685 4.88604 0 1.45054 0 0.737996C0 0.356274 0.152689 0 0.890685 0H3.51184C4.1735 0 4.42798 0.305378 4.68246 1.01793C5.98031 4.7588 8.14341 8.04161 9.03409 8.04161C9.36492 8.04161 9.5176 7.88892 9.5176 7.04914V3.18102C9.41581 1.39965 8.47423 1.24696 8.47423 0.610755C8.47423 0.305378 8.72871 0 9.13588 0H13.2585C13.8183 0 14.0219 0.305378 14.0219 0.967029V6.1839C14.0219 6.74376 14.2764 6.94734 14.4291 6.94734C14.7599 6.94734 15.0399 6.74376 15.6506 6.133C17.5338 4.02081 18.8825 0.763444 18.8825 0.763444C19.0607 0.381722 19.366 0.0254481 20.0277 0.0254481H22.6488C23.4377 0.0254481 23.6159 0.432618 23.4377 0.992478C23.1069 2.51937 19.9004 7.04914 19.9004 7.04914C19.6205 7.5072 19.5187 7.71079 19.9004 8.21975C20.1804 8.60147 21.0965 9.39036 21.7073 10.1029C22.827 11.3753 23.6922 12.4441 23.9213 13.1821C24.1757 13.9201 23.794 14.3019 23.056 14.3019Z" fill="black"/>
</svg>
